<svg width="106" height="106" viewBox="0 0 106 106" fill="none" xmlns="http://www.w3.org/2000/svg">
<g filter="url(#filter0_d_19_3)">
<path d="M97.75 0H7.90625C5.74561 0 4 1.74561 4 3.90625V93.75C4 95.9106 5.74561 97.6562 7.90625 97.6562H97.75C99.9106 97.6562 101.656 95.9106 101.656 93.75V3.90625C101.656 1.74561 99.9106 0 97.75 0ZM52.9624 49.5728L29.5249 69.2261C28.8901 69.7632 27.9258 69.3115 27.9258 68.4814V60.8276C27.9258 60.5469 28.0601 60.2661 28.2798 60.083L41.6831 48.8281L28.2798 37.5732C28.1676 37.4846 28.0773 37.3714 28.0159 37.2422C27.9545 37.1131 27.9237 36.9716 27.9258 36.8286V29.1748C27.9258 28.3447 28.8901 27.8931 29.5249 28.4302L52.9624 48.0713C53.4385 48.4619 53.4385 49.1821 52.9624 49.5728ZM77.7305 68.4814C77.7305 69.0186 77.3154 69.458 76.8149 69.458H54.2319C53.7314 69.458 53.3164 69.0186 53.3164 68.4814V62.6221C53.3164 62.085 53.7314 61.6455 54.2319 61.6455H76.8149C77.3154 61.6455 77.7305 62.085 77.7305 62.6221V68.4814Z" fill="url(#paint0_linear_19_3)"/>
</g>
<defs>
<filter id="filter0_d_19_3" x="0" y="0" width="105.656" height="105.656" filterUnits="userSpaceOnUse" color-interpolation-filters="sRGB">
<feFlood flood-opacity="0" result="BackgroundImageFix"/>
<feColorMatrix in="SourceAlpha" type="matrix" values="0 0 0 0 0 0 0 0 0 0 0 0 0 0 0 0 0 0 127 0" result="hardAlpha"/>
<feOffset dy="4"/>
<feGaussianBlur stdDeviation="2"/>
<feComposite in2="hardAlpha" operator="out"/>
<feColorMatrix type="matrix" values="0 0 0 0 0 0 0 0 0 0 0 0 0 0 0 0 0 0 0.25 0"/>
<feBlend mode="normal" in2="BackgroundImageFix" result="effect1_dropShadow_19_3"/>
<feBlend mode="normal" in="SourceGraphic" in2="effect1_dropShadow_19_3" result="shape"/>
</filter>
<linearGradient id="paint0_linear_19_3" x1="52.8281" y1="1.49012e-08" x2="53.3281" y2="100.828" gradientUnits="userSpaceOnUse">
<stop stop-color="#009E67"/>
<stop offset="1" stop-color="#003825"/>
</linearGradient>
</defs>
</svg>
